<svg xmlns="http://www.w3.org/2000/svg" xmlns:xlink="http://www.w3.org/1999/xlink" width="500" zoomAndPan="magnify" viewBox="0 0 375 374.999991" height="500" preserveAspectRatio="xMidYMid meet" version="1.2"><defs><clipPath id="6a221baf9c"><path d="M 80 14.738281 L 285 14.738281 L 285 200 L 80 200 Z M 80 14.738281 "/></clipPath></defs><g id="6a22841355"><g style="fill:#d9d9d9;fill-opacity:1;"><g transform="translate(12.928268, 249.650696)"><path style="stroke:none" d="M 20.125 0 L 18.9375 -2.4375 C 18.519531 -1.71875 17.75 -1.070312 16.625 -0.5 C 15.507812 0.0625 14.207031 0.34375 12.71875 0.34375 C 10.46875 0.34375 8.421875 -0.207031 6.578125 -1.3125 C 4.742188 -2.414062 3.285156 -3.984375 2.203125 -6.015625 C 1.117188 -8.054688 0.578125 -10.46875 0.578125 -13.25 C 0.578125 -15.363281 0.90625 -17.289062 1.5625 -19.03125 C 2.21875 -20.769531 3.113281 -22.269531 4.25 -23.53125 C 5.382812 -24.789062 6.660156 -25.757812 8.078125 -26.4375 C 9.492188 -27.125 10.945312 -27.46875 12.4375 -27.46875 C 13.832031 -27.46875 14.984375 -27.332031 15.890625 -27.0625 C 16.804688 -26.789062 17.535156 -26.460938 18.078125 -26.078125 C 18.617188 -25.691406 19.03125 -25.320312 19.3125 -24.96875 C 19.601562 -24.625 19.828125 -24.378906 19.984375 -24.234375 L 20.78125 -27.015625 L 26.546875 -27.015625 L 26.546875 -15.609375 L 19.625 -15.609375 C 19.570312 -17.179688 19.109375 -18.390625 18.234375 -19.234375 C 17.359375 -20.085938 16.351562 -20.515625 15.21875 -20.515625 C 14.1875 -20.515625 13.269531 -20.179688 12.46875 -19.515625 C 11.675781 -18.847656 11.054688 -17.957031 10.609375 -16.84375 C 10.160156 -15.738281 9.9375 -14.539062 9.9375 -13.25 C 9.9375 -11.9375 10.140625 -10.742188 10.546875 -9.671875 C 10.960938 -8.609375 11.566406 -7.753906 12.359375 -7.109375 C 13.160156 -6.460938 14.113281 -6.140625 15.21875 -6.140625 C 16.332031 -6.140625 17.160156 -6.332031 17.703125 -6.71875 C 18.242188 -7.101562 18.65625 -7.539062 18.9375 -8.03125 L 18.9375 -9.65625 L 16.578125 -9.65625 L 16.578125 -13.796875 L 29.40625 -13.796875 L 29.40625 -9.65625 L 27.859375 -9.65625 L 27.859375 0 Z M 20.125 0 "/></g></g><g style="fill:#d9d9d9;fill-opacity:1;"><g transform="translate(42.910332, 249.650696)"><path style="stroke:none" d="M 31.21875 0 L 15.734375 0 L 15.734375 -5.0625 L 19.390625 -5.0625 L 18.59375 -7.6875 L 10.671875 -7.6875 L 9.859375 -5.0625 L 12.875 -5.0625 L 12.875 0 L 0.578125 0 L 0.578125 -5.0625 L 3.203125 -5.0625 L 8.421875 -22.03125 L 6.84375 -22.03125 L 6.84375 -27.015625 L 21.671875 -27.015625 L 28.515625 -5.0625 L 31.21875 -5.0625 Z M 12.09375 -12.328125 L 17.15625 -12.328125 L 14.609375 -20.671875 Z M 12.09375 -12.328125 "/></g></g><g style="fill:#d9d9d9;fill-opacity:1;"><g transform="translate(74.708323, 249.650696)"><path style="stroke:none" d="M 0.96875 -27.015625 L 24.265625 -27.015625 L 24.265625 -18.46875 L 17.578125 -18.46875 L 17.578125 -21.90625 L 11.40625 -21.90625 L 11.40625 -16.578125 L 18.734375 -16.578125 L 18.734375 -11.4375 L 11.40625 -11.4375 L 11.40625 -5.140625 L 17.578125 -5.140625 L 17.578125 -8.734375 L 24.265625 -8.734375 L 24.265625 0 L 0.96875 0 L 0.96875 -5.140625 L 3.40625 -5.140625 L 3.40625 -21.90625 L 0.96875 -21.90625 Z M 0.96875 -27.015625 "/></g></g><g style="fill:#d9d9d9;fill-opacity:1;"><g transform="translate(99.938081, 249.650696)"><path style="stroke:none" d="M 27.9375 -20.203125 L 27.78125 -20.203125 C 27.675781 -19.640625 27.550781 -19.007812 27.40625 -18.3125 C 27.269531 -17.613281 27.132812 -16.96875 27 -16.375 C 26.875 -15.789062 26.757812 -15.34375 26.65625 -15.03125 L 22.609375 0 L 14.53125 0 L 10.203125 -15.421875 C 10.097656 -15.753906 9.945312 -16.394531 9.75 -17.34375 C 9.5625 -18.300781 9.441406 -19.253906 9.390625 -20.203125 L 9.234375 -20.203125 L 9.234375 -4.984375 L 11.4375 -4.984375 L 11.4375 0 L 0.96875 0 L 0.96875 -4.984375 L 3.046875 -4.984375 L 3.046875 -22.03125 L 1 -22.03125 L 1 -27.015625 L 15.65625 -27.015625 L 19.546875 -12.5625 L 23.265625 -27.015625 L 37.984375 -27.015625 L 37.984375 -22.03125 L 35.859375 -22.03125 L 35.859375 -5.015625 L 37.984375 -5.015625 L 37.984375 0 L 25.765625 0 L 25.765625 -5.015625 L 27.9375 -5.015625 Z M 27.9375 -20.203125 "/></g></g><g style="fill:#d9d9d9;fill-opacity:1;"><g transform="translate(138.883856, 249.650696)"><path style="stroke:none" d=""/></g></g><g style="fill:#d9d9d9;fill-opacity:1;"><g transform="translate(148.543024, 249.650696)"><path style="stroke:none" d="M 0.96875 0 L 0.96875 -5.140625 L 3.359375 -5.140625 L 3.359375 -21.90625 L 0.96875 -21.90625 L 0.96875 -27.015625 L 12.75 -27.015625 C 15.863281 -27.015625 18.515625 -26.429688 20.703125 -25.265625 C 22.898438 -24.109375 24.570312 -22.535156 25.71875 -20.546875 C 26.863281 -18.566406 27.4375 -16.34375 27.4375 -13.875 C 27.4375 -9.46875 26.15625 -6.050781 23.59375 -3.625 C 21.03125 -1.207031 17.363281 0 12.59375 0 Z M 11.28125 -5.140625 L 12.75 -5.140625 C 14.113281 -5.160156 15.21875 -5.5625 16.0625 -6.34375 C 16.914062 -7.132812 17.539062 -8.1875 17.9375 -9.5 C 18.34375 -10.8125 18.546875 -12.269531 18.546875 -13.875 C 18.546875 -15.257812 18.34375 -16.5625 17.9375 -17.78125 C 17.539062 -19.007812 16.914062 -20.003906 16.0625 -20.765625 C 15.21875 -21.523438 14.113281 -21.90625 12.75 -21.90625 L 11.28125 -21.90625 Z M 11.28125 -5.140625 "/></g></g><g style="fill:#d9d9d9;fill-opacity:1;"><g transform="translate(176.361435, 249.650696)"><path style="stroke:none" d="M 16.234375 -8.65625 L 16.421875 -8.65625 C 16.472656 -9.195312 16.617188 -9.910156 16.859375 -10.796875 C 17.109375 -11.691406 17.425781 -12.613281 17.8125 -13.5625 L 21.328125 -21.984375 L 19.28125 -21.984375 L 19.28125 -27.015625 L 30.25 -27.015625 L 30.25 -21.984375 L 28.359375 -21.984375 L 19.09375 0 L 11.984375 0 L 1.734375 -21.984375 L -0.390625 -21.984375 L -0.390625 -27.015625 L 13.828125 -27.015625 L 13.828125 -21.984375 L 11.75 -21.984375 L 15.03125 -13.328125 C 15.34375 -12.378906 15.613281 -11.5 15.84375 -10.6875 C 16.070312 -9.875 16.203125 -9.195312 16.234375 -8.65625 Z M 16.234375 -8.65625 "/></g></g><g style="fill:#d9d9d9;fill-opacity:1;"><g transform="translate(206.227594, 249.650696)"><path style="stroke:none" d="M 0.96875 -27.015625 L 24.265625 -27.015625 L 24.265625 -18.46875 L 17.578125 -18.46875 L 17.578125 -21.90625 L 11.40625 -21.90625 L 11.40625 -16.578125 L 18.734375 -16.578125 L 18.734375 -11.4375 L 11.40625 -11.4375 L 11.40625 -5.140625 L 17.578125 -5.140625 L 17.578125 -8.734375 L 24.265625 -8.734375 L 24.265625 0 L 0.96875 0 L 0.96875 -5.140625 L 3.40625 -5.140625 L 3.40625 -21.90625 L 0.96875 -21.90625 Z M 0.96875 -27.015625 "/></g></g><g style="fill:#d9d9d9;fill-opacity:1;"><g transform="translate(231.457352, 249.650696)"><path style="stroke:none" d="M 0.96875 -27.015625 L 13.171875 -27.015625 L 13.171875 -21.90625 L 11.125 -21.90625 L 11.125 -5.140625 L 16.109375 -5.140625 L 16.109375 -10.046875 L 22.609375 -10.046875 L 22.609375 0 L 0.96875 0 L 0.96875 -5.140625 L 3.09375 -5.140625 L 3.09375 -21.90625 L 0.96875 -21.90625 Z M 0.96875 -27.015625 "/></g></g><g style="fill:#d9d9d9;fill-opacity:1;"><g transform="translate(255.025725, 249.650696)"><path style="stroke:none" d="M 14.40625 0.703125 C 11.726562 0.703125 9.347656 0.179688 7.265625 -0.859375 C 5.179688 -1.910156 3.546875 -3.5 2.359375 -5.625 C 1.171875 -7.75 0.578125 -10.421875 0.578125 -13.640625 C 0.578125 -16.421875 1.148438 -18.875 2.296875 -21 C 3.441406 -23.125 5.035156 -24.78125 7.078125 -25.96875 C 9.128906 -27.15625 11.484375 -27.75 14.140625 -27.75 C 17.304688 -27.75 19.914062 -27.15625 21.96875 -25.96875 C 24.019531 -24.78125 25.539062 -23.109375 26.53125 -20.953125 C 27.519531 -18.804688 28.015625 -16.28125 28.015625 -13.375 C 28.015625 -10.457031 27.484375 -7.945312 26.421875 -5.84375 C 25.367188 -3.75 23.832031 -2.132812 21.8125 -1 C 19.789062 0.132812 17.320312 0.703125 14.40625 0.703125 Z M 14.40625 -5.375 C 15.625 -5.375 16.585938 -6.109375 17.296875 -7.578125 C 18.003906 -9.046875 18.359375 -10.976562 18.359375 -13.375 C 18.359375 -14.945312 18.207031 -16.363281 17.90625 -17.625 C 17.613281 -18.882812 17.15625 -19.894531 16.53125 -20.65625 C 15.914062 -21.414062 15.109375 -21.796875 14.109375 -21.796875 C 13.328125 -21.816406 12.632812 -21.476562 12.03125 -20.78125 C 11.425781 -20.09375 10.957031 -19.128906 10.625 -17.890625 C 10.289062 -16.648438 10.125 -15.234375 10.125 -13.640625 C 10.125 -11.117188 10.53125 -9.109375 11.34375 -7.609375 C 12.15625 -6.117188 13.175781 -5.375 14.40625 -5.375 Z M 14.40625 -5.375 "/></g></g><g style="fill:#d9d9d9;fill-opacity:1;"><g transform="translate(283.616864, 249.650696)"><path style="stroke:none" d="M 0.96875 -27.015625 L 13.484375 -27.015625 C 15.722656 -27.015625 17.546875 -26.796875 18.953125 -26.359375 C 20.359375 -25.921875 21.429688 -25.3125 22.171875 -24.53125 C 22.921875 -23.757812 23.4375 -22.878906 23.71875 -21.890625 C 24.007812 -20.898438 24.15625 -19.847656 24.15625 -18.734375 C 24.15625 -17.035156 23.691406 -15.617188 22.765625 -14.484375 C 21.835938 -13.359375 20.601562 -12.507812 19.0625 -11.9375 C 17.53125 -11.375 15.835938 -11.09375 13.984375 -11.09375 L 11.046875 -11.09375 L 11.046875 -5.09375 L 13.40625 -5.09375 L 13.40625 0 L 0.96875 0 L 0.96875 -5.09375 L 3.125 -5.09375 L 3.125 -21.953125 L 0.96875 -21.953125 Z M 11.046875 -21.984375 L 11.046875 -15.265625 L 12.796875 -15.265625 C 13.921875 -15.265625 14.832031 -15.539062 15.53125 -16.09375 C 16.226562 -16.644531 16.578125 -17.4375 16.578125 -18.46875 C 16.578125 -19.601562 16.257812 -20.472656 15.625 -21.078125 C 15 -21.679688 14.117188 -21.984375 12.984375 -21.984375 Z M 11.046875 -21.984375 "/></g></g><g style="fill:#d9d9d9;fill-opacity:1;"><g transform="translate(308.344341, 249.650696)"><path style="stroke:none" d="M 0.96875 -27.015625 L 24.265625 -27.015625 L 24.265625 -18.46875 L 17.578125 -18.46875 L 17.578125 -21.90625 L 11.40625 -21.90625 L 11.40625 -16.578125 L 18.734375 -16.578125 L 18.734375 -11.4375 L 11.40625 -11.4375 L 11.40625 -5.140625 L 17.578125 -5.140625 L 17.578125 -8.734375 L 24.265625 -8.734375 L 24.265625 0 L 0.96875 0 L 0.96875 -5.140625 L 3.40625 -5.140625 L 3.40625 -21.90625 L 0.96875 -21.90625 Z M 0.96875 -27.015625 "/></g></g><g style="fill:#d9d9d9;fill-opacity:1;"><g transform="translate(333.574121, 249.650696)"><path style="stroke:none" d="M 0.96875 -27.015625 L 13.53125 -27.015625 C 15.769531 -27.015625 17.585938 -26.804688 18.984375 -26.390625 C 20.390625 -25.972656 21.472656 -25.398438 22.234375 -24.671875 C 22.992188 -23.941406 23.515625 -23.097656 23.796875 -22.140625 C 24.085938 -21.191406 24.234375 -20.160156 24.234375 -19.046875 C 24.234375 -17.554688 23.695312 -16.304688 22.625 -15.296875 C 21.550781 -14.296875 20.21875 -13.679688 18.625 -13.453125 C 19.53125 -13.316406 20.359375 -12.988281 21.109375 -12.46875 C 21.867188 -11.957031 22.488281 -11.304688 22.96875 -10.515625 C 23.445312 -9.734375 23.6875 -8.878906 23.6875 -7.953125 C 23.6875 -7.128906 23.753906 -6.484375 23.890625 -6.015625 C 24.035156 -5.554688 24.273438 -5.328125 24.609375 -5.328125 C 25.203125 -5.328125 25.5 -5.738281 25.5 -6.5625 L 25.5 -7.84375 L 28.09375 -7.84375 L 28.09375 -5.71875 C 28.09375 -4.664062 27.914062 -3.660156 27.5625 -2.703125 C 27.21875 -1.753906 26.640625 -0.988281 25.828125 -0.40625 C 25.015625 0.175781 23.890625 0.46875 22.453125 0.46875 C 19.921875 0.46875 18.035156 -0.160156 16.796875 -1.421875 C 15.566406 -2.691406 14.953125 -4.457031 14.953125 -6.71875 C 14.953125 -7.90625 14.867188 -8.804688 14.703125 -9.421875 C 14.535156 -10.046875 14.179688 -10.476562 13.640625 -10.71875 C 13.097656 -10.96875 12.25 -11.09375 11.09375 -11.09375 L 11.09375 -5.09375 L 13.453125 -5.09375 L 13.453125 0 L 0.96875 0 L 0.96875 -5.09375 L 3.125 -5.09375 L 3.125 -21.953125 L 0.96875 -21.953125 Z M 11.09375 -21.984375 L 11.09375 -15.421875 L 12.828125 -15.421875 C 13.960938 -15.421875 14.863281 -15.679688 15.53125 -16.203125 C 16.195312 -16.734375 16.53125 -17.515625 16.53125 -18.546875 C 16.53125 -19.679688 16.226562 -20.535156 15.625 -21.109375 C 15.019531 -21.691406 14.148438 -21.984375 13.015625 -21.984375 Z M 11.09375 -21.984375 "/></g></g><g style="fill:#38b6ff;fill-opacity:1;"><g transform="translate(103.240509, 289.332168)"><path style="stroke:none" d="M 4.5625 0 L 1.46875 0 L 1.46875 -16.390625 L 4.5625 -16.390625 Z M 4.5625 0 "/></g></g><g style="fill:#38b6ff;fill-opacity:1;"><g transform="translate(109.359184, 289.332168)"><path style="stroke:none" d="M 8.78125 0.296875 C 7.4375 0.296875 6.265625 0.0664062 5.265625 -0.390625 C 4.265625 -0.847656 3.4375 -1.46875 2.78125 -2.25 C 2.132812 -3.039062 1.648438 -3.945312 1.328125 -4.96875 C 1.003906 -6 0.84375 -7.078125 0.84375 -8.203125 C 0.84375 -9.335938 1.003906 -10.414062 1.328125 -11.4375 C 1.648438 -12.46875 2.132812 -13.375 2.78125 -14.15625 C 3.4375 -14.945312 4.265625 -15.566406 5.265625 -16.015625 C 6.265625 -16.460938 7.4375 -16.6875 8.78125 -16.6875 C 10.144531 -16.6875 11.328125 -16.460938 12.328125 -16.015625 C 13.335938 -15.566406 14.164062 -14.945312 14.8125 -14.15625 C 15.46875 -13.375 15.957031 -12.46875 16.28125 -11.4375 C 16.601562 -10.414062 16.765625 -9.335938 16.765625 -8.203125 C 16.765625 -7.078125 16.601562 -6 16.28125 -4.96875 C 15.957031 -3.945312 15.46875 -3.039062 14.8125 -2.25 C 14.164062 -1.46875 13.335938 -0.847656 12.328125 -0.390625 C 11.328125 0.0664062 10.144531 0.296875 8.78125 0.296875 Z M 8.78125 -2.46875 C 9.800781 -2.46875 10.660156 -2.707031 11.359375 -3.1875 C 12.066406 -3.664062 12.601562 -4.335938 12.96875 -5.203125 C 13.34375 -6.078125 13.53125 -7.078125 13.53125 -8.203125 C 13.53125 -9.335938 13.34375 -10.332031 12.96875 -11.1875 C 12.601562 -12.039062 12.066406 -12.707031 11.359375 -13.1875 C 10.660156 -13.664062 9.800781 -13.90625 8.78125 -13.90625 C 7.800781 -13.90625 6.953125 -13.664062 6.234375 -13.1875 C 5.523438 -12.707031 4.984375 -12.039062 4.609375 -11.1875 C 4.242188 -10.332031 4.0625 -9.335938 4.0625 -8.203125 C 4.0625 -7.078125 4.242188 -6.078125 4.609375 -5.203125 C 4.984375 -4.335938 5.523438 -3.664062 6.234375 -3.1875 C 6.953125 -2.707031 7.800781 -2.46875 8.78125 -2.46875 Z M 8.78125 -2.46875 "/></g></g><g style="fill:#38b6ff;fill-opacity:1;"><g transform="translate(127.070986, 289.332168)"><path style="stroke:none" d="M 7.96875 0.296875 C 7.1875 0.296875 6.390625 0.195312 5.578125 0 C 4.765625 -0.1875 4.015625 -0.492188 3.328125 -0.921875 C 2.640625 -1.347656 2.0625 -1.921875 1.59375 -2.640625 C 1.132812 -3.367188 0.851562 -4.265625 0.75 -5.328125 L 3.953125 -5.328125 C 4.140625 -4.554688 4.441406 -3.953125 4.859375 -3.515625 C 5.273438 -3.078125 5.757812 -2.769531 6.3125 -2.59375 C 6.863281 -2.425781 7.425781 -2.34375 8 -2.34375 C 8.84375 -2.34375 9.550781 -2.519531 10.125 -2.875 C 10.695312 -3.238281 10.984375 -3.8125 10.984375 -4.59375 C 10.984375 -5.164062 10.796875 -5.609375 10.421875 -5.921875 C 10.046875 -6.242188 9.5625 -6.492188 8.96875 -6.671875 C 8.375 -6.847656 7.726562 -7.007812 7.03125 -7.15625 C 6.351562 -7.3125 5.675781 -7.484375 5 -7.671875 C 4.332031 -7.859375 3.710938 -8.113281 3.140625 -8.4375 C 2.578125 -8.769531 2.128906 -9.210938 1.796875 -9.765625 C 1.460938 -10.316406 1.296875 -11.019531 1.296875 -11.875 C 1.296875 -12.9375 1.546875 -13.820312 2.046875 -14.53125 C 2.554688 -15.238281 3.25 -15.773438 4.125 -16.140625 C 5 -16.503906 5.988281 -16.6875 7.09375 -16.6875 C 8.15625 -16.6875 9.148438 -16.5 10.078125 -16.125 C 11.003906 -15.757812 11.789062 -15.195312 12.4375 -14.4375 C 13.082031 -13.675781 13.492188 -12.703125 13.671875 -11.515625 L 10.5 -11.515625 C 10.300781 -12.390625 9.882812 -13.03125 9.25 -13.4375 C 8.613281 -13.84375 7.875 -14.046875 7.03125 -14.046875 C 6.25 -14.046875 5.609375 -13.882812 5.109375 -13.5625 C 4.609375 -13.238281 4.359375 -12.765625 4.359375 -12.140625 C 4.359375 -11.640625 4.535156 -11.242188 4.890625 -10.953125 C 5.242188 -10.671875 5.707031 -10.445312 6.28125 -10.28125 C 6.851562 -10.113281 7.46875 -9.953125 8.125 -9.796875 C 8.8125 -9.648438 9.5 -9.472656 10.1875 -9.265625 C 10.882812 -9.054688 11.53125 -8.773438 12.125 -8.421875 C 12.71875 -8.078125 13.191406 -7.609375 13.546875 -7.015625 C 13.910156 -6.429688 14.09375 -5.675781 14.09375 -4.75 C 14.09375 -3.195312 13.554688 -1.96875 12.484375 -1.0625 C 11.410156 -0.15625 9.90625 0.296875 7.96875 0.296875 Z M 7.96875 0.296875 "/></g></g><g style="fill:#38b6ff;fill-opacity:1;"><g transform="translate(142.120664, 289.332168)"><path style="stroke:none" d=""/></g></g><g style="fill:#38b6ff;fill-opacity:1;"><g transform="translate(147.98172, 289.332168)"><path style="stroke:none" d="M 6.453125 0.296875 C 5.484375 0.296875 4.582031 0.140625 3.75 -0.171875 C 2.925781 -0.484375 2.253906 -0.957031 1.734375 -1.59375 C 1.222656 -2.238281 0.96875 -3.023438 0.96875 -3.953125 C 0.96875 -4.722656 1.117188 -5.390625 1.421875 -5.953125 C 1.734375 -6.515625 2.171875 -7.023438 2.734375 -7.484375 C 3.304688 -7.941406 3.960938 -8.398438 4.703125 -8.859375 C 4.035156 -9.546875 3.550781 -10.175781 3.25 -10.75 C 2.957031 -11.320312 2.8125 -11.960938 2.8125 -12.671875 C 2.8125 -13.492188 3.007812 -14.203125 3.40625 -14.796875 C 3.8125 -15.398438 4.363281 -15.863281 5.0625 -16.1875 C 5.757812 -16.519531 6.539062 -16.6875 7.40625 -16.6875 C 8.71875 -16.6875 9.773438 -16.351562 10.578125 -15.6875 C 11.390625 -15.03125 11.796875 -14.113281 11.796875 -12.9375 C 11.796875 -12.019531 11.515625 -11.191406 10.953125 -10.453125 C 10.398438 -9.710938 9.632812 -9.050781 8.65625 -8.46875 L 11.296875 -5.140625 C 11.585938 -5.671875 11.789062 -6.175781 11.90625 -6.65625 C 12.03125 -7.144531 12.125 -7.65625 12.1875 -8.1875 L 14.890625 -8.1875 C 14.785156 -7.164062 14.582031 -6.21875 14.28125 -5.34375 C 13.988281 -4.476562 13.578125 -3.6875 13.046875 -2.96875 L 15.421875 0 L 11.859375 0 L 10.890625 -1.203125 C 10.347656 -0.671875 9.671875 -0.285156 8.859375 -0.046875 C 8.054688 0.179688 7.253906 0.296875 6.453125 0.296875 Z M 6.9375 -10.1875 C 7.550781 -10.582031 8.050781 -10.984375 8.4375 -11.390625 C 8.832031 -11.804688 9.03125 -12.285156 9.03125 -12.828125 C 9.03125 -13.242188 8.878906 -13.597656 8.578125 -13.890625 C 8.285156 -14.179688 7.894531 -14.328125 7.40625 -14.328125 C 6.925781 -14.328125 6.515625 -14.171875 6.171875 -13.859375 C 5.835938 -13.554688 5.671875 -13.15625 5.671875 -12.65625 C 5.671875 -12.226562 5.773438 -11.832031 5.984375 -11.46875 C 6.191406 -11.101562 6.507812 -10.675781 6.9375 -10.1875 Z M 6.515625 -2.171875 C 7.054688 -2.171875 7.582031 -2.257812 8.09375 -2.4375 C 8.613281 -2.613281 9.0625 -2.835938 9.4375 -3.109375 L 6.296875 -7.03125 C 5.609375 -6.613281 5.023438 -6.179688 4.546875 -5.734375 C 4.066406 -5.296875 3.828125 -4.753906 3.828125 -4.109375 C 3.828125 -3.492188 4.085938 -3.015625 4.609375 -2.671875 C 5.128906 -2.335938 5.765625 -2.171875 6.515625 -2.171875 Z M 6.515625 -2.171875 "/></g></g><g style="fill:#38b6ff;fill-opacity:1;"><g transform="translate(164.126312, 289.332168)"><path style="stroke:none" d=""/></g></g><g style="fill:#38b6ff;fill-opacity:1;"><g transform="translate(169.987369, 289.332168)"><path style="stroke:none" d="M 3.390625 0 L 0.15625 0 L 5.9375 -16.390625 L 9.328125 -16.390625 L 15.109375 0 L 11.859375 0 L 10.75 -3.375 L 4.484375 -3.375 Z M 7.625 -13.015625 L 5.375 -6.078125 L 9.890625 -6.078125 Z M 7.625 -13.015625 "/></g></g><g style="fill:#38b6ff;fill-opacity:1;"><g transform="translate(185.337614, 289.332168)"><path style="stroke:none" d="M 4.5625 0 L 1.46875 0 L 1.46875 -16.390625 L 4.9375 -16.390625 L 11.671875 -4.65625 L 11.671875 -16.390625 L 14.765625 -16.390625 L 14.765625 0 L 11.265625 0 L 4.5625 -11.75 Z M 4.5625 0 "/></g></g><g style="fill:#38b6ff;fill-opacity:1;"><g transform="translate(201.653947, 289.332168)"><path style="stroke:none" d="M 6.234375 0 L 1.46875 0 L 1.46875 -16.390625 L 6.234375 -16.390625 C 9.015625 -16.390625 11.132812 -15.679688 12.59375 -14.265625 C 14.0625 -12.847656 14.796875 -10.820312 14.796875 -8.1875 C 14.796875 -5.5625 14.054688 -3.539062 12.578125 -2.125 C 11.109375 -0.707031 8.992188 0 6.234375 0 Z M 4.5625 -13.625 L 4.5625 -2.765625 L 6.1875 -2.765625 C 7.28125 -2.765625 8.238281 -2.929688 9.0625 -3.265625 C 9.894531 -3.609375 10.539062 -4.175781 11 -4.96875 C 11.46875 -5.769531 11.703125 -6.84375 11.703125 -8.1875 C 11.703125 -9.457031 11.472656 -10.488281 11.015625 -11.28125 C 10.554688 -12.082031 9.914062 -12.671875 9.09375 -13.046875 C 8.269531 -13.429688 7.304688 -13.625 6.203125 -13.625 Z M 4.5625 -13.625 "/></g></g><g style="fill:#38b6ff;fill-opacity:1;"><g transform="translate(217.390625, 289.332168)"><path style="stroke:none" d="M 11.15625 -7.109375 L 14.09375 0 L 10.8125 0 L 8.203125 -6.546875 L 4.5625 -6.546875 L 4.5625 0 L 1.46875 0 L 1.46875 -16.390625 L 8.53125 -16.390625 C 9.5625 -16.390625 10.46875 -16.222656 11.25 -15.890625 C 12.03125 -15.554688 12.640625 -15.03125 13.078125 -14.3125 C 13.515625 -13.601562 13.734375 -12.6875 13.734375 -11.5625 C 13.734375 -10.488281 13.503906 -9.570312 13.046875 -8.8125 C 12.585938 -8.050781 11.957031 -7.484375 11.15625 -7.109375 Z M 8.09375 -13.625 L 4.5625 -13.625 L 4.5625 -9.265625 L 8.09375 -9.265625 C 8.925781 -9.265625 9.5625 -9.445312 10 -9.8125 C 10.4375 -10.1875 10.65625 -10.734375 10.65625 -11.453125 C 10.65625 -12.148438 10.429688 -12.6875 9.984375 -13.0625 C 9.546875 -13.4375 8.914062 -13.625 8.09375 -13.625 Z M 8.09375 -13.625 "/></g></g><g style="fill:#38b6ff;fill-opacity:1;"><g transform="translate(232.290019, 289.332168)"><path style="stroke:none" d="M 8.78125 0.296875 C 7.4375 0.296875 6.265625 0.0664062 5.265625 -0.390625 C 4.265625 -0.847656 3.4375 -1.46875 2.78125 -2.25 C 2.132812 -3.039062 1.648438 -3.945312 1.328125 -4.96875 C 1.003906 -6 0.84375 -7.078125 0.84375 -8.203125 C 0.84375 -9.335938 1.003906 -10.414062 1.328125 -11.4375 C 1.648438 -12.46875 2.132812 -13.375 2.78125 -14.15625 C 3.4375 -14.945312 4.265625 -15.566406 5.265625 -16.015625 C 6.265625 -16.460938 7.4375 -16.6875 8.78125 -16.6875 C 10.144531 -16.6875 11.328125 -16.460938 12.328125 -16.015625 C 13.335938 -15.566406 14.164062 -14.945312 14.8125 -14.15625 C 15.46875 -13.375 15.957031 -12.46875 16.28125 -11.4375 C 16.601562 -10.414062 16.765625 -9.335938 16.765625 -8.203125 C 16.765625 -7.078125 16.601562 -6 16.28125 -4.96875 C 15.957031 -3.945312 15.46875 -3.039062 14.8125 -2.25 C 14.164062 -1.46875 13.335938 -0.847656 12.328125 -0.390625 C 11.328125 0.0664062 10.144531 0.296875 8.78125 0.296875 Z M 8.78125 -2.46875 C 9.800781 -2.46875 10.660156 -2.707031 11.359375 -3.1875 C 12.066406 -3.664062 12.601562 -4.335938 12.96875 -5.203125 C 13.34375 -6.078125 13.53125 -7.078125 13.53125 -8.203125 C 13.53125 -9.335938 13.34375 -10.332031 12.96875 -11.1875 C 12.601562 -12.039062 12.066406 -12.707031 11.359375 -13.1875 C 10.660156 -13.664062 9.800781 -13.90625 8.78125 -13.90625 C 7.800781 -13.90625 6.953125 -13.664062 6.234375 -13.1875 C 5.523438 -12.707031 4.984375 -12.039062 4.609375 -11.1875 C 4.242188 -10.332031 4.0625 -9.335938 4.0625 -8.203125 C 4.0625 -7.078125 4.242188 -6.078125 4.609375 -5.203125 C 4.984375 -4.335938 5.523438 -3.664062 6.234375 -3.1875 C 6.953125 -2.707031 7.800781 -2.46875 8.78125 -2.46875 Z M 8.78125 -2.46875 "/></g></g><g style="fill:#38b6ff;fill-opacity:1;"><g transform="translate(250.001821, 289.332168)"><path style="stroke:none" d="M 4.5625 0 L 1.46875 0 L 1.46875 -16.390625 L 4.5625 -16.390625 Z M 4.5625 0 "/></g></g><g style="fill:#38b6ff;fill-opacity:1;"><g transform="translate(256.120496, 289.332168)"><path style="stroke:none" d="M 6.234375 0 L 1.46875 0 L 1.46875 -16.390625 L 6.234375 -16.390625 C 9.015625 -16.390625 11.132812 -15.679688 12.59375 -14.265625 C 14.0625 -12.847656 14.796875 -10.820312 14.796875 -8.1875 C 14.796875 -5.5625 14.054688 -3.539062 12.578125 -2.125 C 11.109375 -0.707031 8.992188 0 6.234375 0 Z M 4.5625 -13.625 L 4.5625 -2.765625 L 6.1875 -2.765625 C 7.28125 -2.765625 8.238281 -2.929688 9.0625 -3.265625 C 9.894531 -3.609375 10.539062 -4.175781 11 -4.96875 C 11.46875 -5.769531 11.703125 -6.84375 11.703125 -8.1875 C 11.703125 -9.457031 11.472656 -10.488281 11.015625 -11.28125 C 10.554688 -12.082031 9.914062 -12.671875 9.09375 -13.046875 C 8.269531 -13.429688 7.304688 -13.625 6.203125 -13.625 Z M 4.5625 -13.625 "/></g></g><g clip-rule="nonzero" clip-path="url(#6a221baf9c)"><path style=" stroke:none;fill-rule:nonzero;fill:#1aa8e8;fill-opacity:1;" d="M 220.734375 29.222656 L 188.246094 78.738281 C 187.621094 78.683594 187 78.65625 186.371094 78.65625 L 176.148438 78.65625 C 175.398438 78.65625 174.648438 78.695312 173.894531 78.769531 L 156.679688 52.53125 C 157.582031 51.058594 158.0625 49.359375 158.0625 47.617188 C 158.0625 42.410156 153.839844 38.195312 148.632812 38.195312 C 143.429688 38.195312 139.207031 42.414062 139.207031 47.617188 C 139.207031 52.820312 143.429688 57.042969 148.632812 57.042969 C 148.976562 57.042969 149.316406 57.023438 149.65625 56.988281 L 165.632812 81.339844 C 160.511719 84.132812 156.714844 88.828125 155.035156 94.332031 L 127.855469 94.332031 L 127.855469 94.363281 C 127.316406 94.363281 126.765625 94.410156 126.214844 94.511719 C 117.371094 96.132812 109.941406 99.238281 103.808594 103.386719 C 96.925781 108.042969 91.664062 114.003906 87.859375 120.667969 C 78.628906 136.832031 78.261719 157.167969 84.03125 172.703125 C 86.527344 179.429688 90.226562 185.410156 94.917969 189.96875 C 100.023438 194.929688 106.246094 198.175781 113.371094 198.941406 C 123.28125 200.007812 134.441406 196.183594 145.917969 185.242188 C 173.414062 151.53125 190.582031 152.128906 218.738281 185.242188 C 230.539062 196.492188 242 200.21875 252.117188 198.832031 C 259.117188 197.878906 265.207031 194.523438 270.183594 189.53125 C 274.734375 184.957031 278.332031 178.980469 280.761719 172.265625 C 286.550781 156.261719 285.882812 135.3125 275.816406 119.039062 C 271.960938 112.800781 266.761719 107.246094 260.0625 102.890625 C 254.25 99.109375 247.339844 96.25 239.242188 94.667969 C 238.464844 94.453125 237.648438 94.335938 236.800781 94.335938 L 207.476562 94.335938 C 205.765625 88.722656 201.851562 83.953125 196.585938 81.1875 L 227.832031 33.554688 C 228.113281 33.582031 228.398438 33.589844 228.683594 33.589844 C 233.886719 33.589844 238.105469 29.367188 238.105469 24.164062 C 238.105469 18.957031 233.890625 14.738281 228.683594 14.738281 C 223.476562 14.738281 219.253906 18.957031 219.253906 24.160156 C 219.253906 25.964844 219.769531 27.710938 220.734375 29.222656 M 221.417969 135.140625 C 219.289062 137.269531 219.289062 140.722656 221.417969 142.851562 C 223.546875 144.976562 227 144.976562 229.125 142.851562 C 231.253906 140.722656 231.253906 137.269531 229.125 135.140625 C 227 133.015625 223.546875 133.015625 221.417969 135.140625 Z M 232.082031 144.894531 C 229.953125 147.019531 229.953125 150.476562 232.082031 152.601562 C 234.207031 154.726562 237.65625 154.726562 239.785156 152.601562 C 241.914062 150.476562 241.914062 147.019531 239.785156 144.894531 C 237.65625 142.769531 234.207031 142.769531 232.082031 144.894531 Z M 229.128906 155.269531 C 227 153.140625 223.550781 153.140625 221.421875 155.269531 C 219.292969 157.394531 219.292969 160.847656 221.421875 162.972656 C 223.550781 165.101562 227.003906 165.101562 229.128906 162.972656 C 231.257812 160.847656 231.257812 157.394531 229.128906 155.269531 Z M 130.824219 161.097656 L 140.496094 161.097656 L 140.496094 153.527344 L 148.0625 153.527344 L 148.0625 143.859375 L 140.496094 143.859375 L 140.496094 136.289062 L 130.824219 136.289062 L 130.824219 143.859375 L 123.25 143.859375 L 123.25 153.527344 L 130.824219 153.527344 Z M 210.859375 145.261719 C 208.734375 147.390625 208.734375 150.839844 210.859375 152.96875 C 212.988281 155.09375 216.441406 155.09375 218.570312 152.96875 C 220.695312 150.839844 220.695312 147.390625 218.570312 145.261719 C 216.441406 143.132812 212.988281 143.132812 210.859375 145.261719 Z M 101.132812 166.359375 C 97.023438 155.300781 97.226562 140.933594 103.679688 129.636719 C 106.121094 125.351562 109.527344 121.507812 113.996094 118.484375 C 117.976562 115.789062 122.808594 113.730469 128.566406 112.566406 L 236.089844 112.566406 C 241.632812 113.691406 246.296875 115.621094 250.15625 118.128906 C 254.496094 120.953125 257.863281 124.546875 260.355469 128.578125 C 267.371094 139.917969 267.773438 154.6875 263.660156 166.0625 C 249.855469 204.238281 115.824219 205.988281 101.132812 166.359375 Z M 101.132812 166.359375 "/></g></g></svg>