<svg xmlns="http://www.w3.org/2000/svg" xmlns:xlink="http://www.w3.org/1999/xlink" width="500" zoomAndPan="magnify" viewBox="0 0 375 374.999991" height="500" preserveAspectRatio="xMidYMid meet" version="1.2"><defs><clipPath id="5281d7a60e"><path d="M 85.726562 9.257812 L 288.976562 9.257812 L 288.976562 212.507812 L 85.726562 212.507812 Z M 85.726562 9.257812 "/></clipPath></defs><g id="a331641b3b"><g clip-rule="nonzero" clip-path="url(#5281d7a60e)"><path style=" stroke:none;fill-rule:nonzero;fill:#5271ff;fill-opacity:1;" d="M 278.8125 165.082031 L 95.890625 165.082031 C 94.023438 165.082031 92.5 163.558594 92.5 161.695312 L 92.5 151.53125 L 282.203125 151.53125 L 282.203125 161.695312 C 282.203125 163.558594 280.679688 165.082031 278.8125 165.082031 Z M 204.289062 185.40625 L 170.414062 185.40625 L 170.414062 171.855469 L 204.289062 171.855469 Z M 224.613281 192.183594 C 226.480469 192.183594 228 193.703125 228 195.570312 L 228 205.730469 L 146.703125 205.730469 L 146.703125 195.570312 C 146.703125 193.703125 148.222656 192.183594 150.089844 192.183594 Z M 95.890625 43.132812 L 109.4375 43.132812 L 109.4375 46.519531 L 99.277344 46.519531 C 97.410156 46.519531 95.890625 48.042969 95.890625 49.90625 L 95.890625 137.980469 C 95.890625 139.847656 97.410156 141.371094 99.277344 141.371094 L 275.425781 141.371094 C 277.292969 141.371094 278.8125 139.847656 278.8125 137.980469 L 278.8125 49.90625 C 278.8125 48.042969 277.292969 46.519531 275.425781 46.519531 L 265.265625 46.519531 L 265.265625 43.132812 L 278.8125 43.132812 C 280.679688 43.132812 282.203125 44.652344 282.203125 46.519531 L 282.203125 144.757812 L 92.5 144.757812 L 92.5 46.519531 C 92.5 44.652344 94.023438 43.132812 95.890625 43.132812 Z M 119.601562 16.03125 L 255.101562 16.03125 C 256.96875 16.03125 258.488281 17.554688 258.488281 19.417969 L 258.488281 29.582031 L 116.214844 29.582031 L 116.214844 19.417969 C 116.214844 17.554688 117.734375 16.03125 119.601562 16.03125 Z M 119.601562 127.820312 L 255.101562 127.820312 C 260.710938 127.820312 265.265625 123.269531 265.265625 117.65625 L 265.265625 53.292969 L 272.039062 53.292969 L 272.039062 134.59375 L 102.664062 134.59375 L 102.664062 53.292969 L 109.4375 53.292969 L 109.4375 117.65625 C 109.4375 123.269531 113.992188 127.820312 119.601562 127.820312 Z M 258.488281 117.65625 C 258.488281 119.523438 256.96875 121.042969 255.101562 121.042969 L 119.601562 121.042969 C 117.734375 121.042969 116.214844 119.523438 116.214844 117.65625 L 116.214844 36.355469 L 258.488281 36.355469 Z M 278.8125 36.355469 L 265.265625 36.355469 L 265.265625 19.417969 C 265.265625 13.808594 260.710938 9.257812 255.101562 9.257812 L 119.601562 9.257812 C 113.992188 9.257812 109.4375 13.808594 109.4375 19.417969 L 109.4375 36.355469 L 95.890625 36.355469 C 90.277344 36.355469 85.726562 40.910156 85.726562 46.519531 L 85.726562 161.695312 C 85.726562 167.304688 90.277344 171.855469 95.890625 171.855469 L 163.640625 171.855469 L 163.640625 185.40625 L 150.089844 185.40625 C 144.476562 185.40625 139.925781 189.960938 139.925781 195.570312 L 139.925781 209.121094 C 139.925781 210.984375 141.449219 212.507812 143.3125 212.507812 L 231.390625 212.507812 C 233.253906 212.507812 234.777344 210.984375 234.777344 209.121094 L 234.777344 195.570312 C 234.777344 189.960938 230.222656 185.40625 224.613281 185.40625 L 211.0625 185.40625 L 211.0625 171.855469 L 278.8125 171.855469 C 284.425781 171.855469 288.976562 167.304688 288.976562 161.695312 L 288.976562 46.519531 C 288.976562 40.910156 284.425781 36.355469 278.8125 36.355469 "/></g><path style=" stroke:none;fill-rule:nonzero;fill:#5271ff;fill-opacity:1;" d="M 265.265625 154.917969 L 258.488281 154.917969 C 256.625 154.917969 255.101562 156.441406 255.101562 158.308594 C 255.101562 160.171875 256.625 161.695312 258.488281 161.695312 L 265.265625 161.695312 C 267.128906 161.695312 268.652344 160.171875 268.652344 158.308594 C 268.652344 156.441406 267.128906 154.917969 265.265625 154.917969 "/><path style=" stroke:none;fill-rule:nonzero;fill:#5271ff;fill-opacity:1;" d="M 129.765625 19.417969 L 122.988281 19.417969 L 122.988281 26.195312 L 129.765625 26.195312 L 129.765625 19.417969 "/><path style=" stroke:none;fill-rule:nonzero;fill:#5271ff;fill-opacity:1;" d="M 143.3125 19.417969 L 136.539062 19.417969 L 136.539062 26.195312 L 143.3125 26.195312 L 143.3125 19.417969 "/><path style=" stroke:none;fill-rule:nonzero;fill:#5271ff;fill-opacity:1;" d="M 156.863281 19.417969 L 150.089844 19.417969 L 150.089844 26.195312 L 156.863281 26.195312 L 156.863281 19.417969 "/><path style=" stroke:none;fill-rule:nonzero;fill:#5271ff;fill-opacity:1;" d="M 139.925781 49.90625 L 146.703125 49.90625 C 148.566406 49.90625 150.089844 48.386719 150.089844 46.519531 C 150.089844 44.652344 148.566406 43.132812 146.703125 43.132812 L 139.925781 43.132812 C 138.0625 43.132812 136.539062 44.652344 136.539062 46.519531 C 136.539062 48.386719 138.0625 49.90625 139.925781 49.90625 "/><path style=" stroke:none;fill-rule:nonzero;fill:#5271ff;fill-opacity:1;" d="M 156.863281 49.90625 L 160.25 49.90625 C 162.117188 49.90625 163.640625 48.386719 163.640625 46.519531 C 163.640625 44.652344 162.117188 43.132812 160.25 43.132812 L 156.863281 43.132812 C 155 43.132812 153.476562 44.652344 153.476562 46.519531 C 153.476562 48.386719 155 49.90625 156.863281 49.90625 "/><path style=" stroke:none;fill-rule:nonzero;fill:#5271ff;fill-opacity:1;" d="M 139.925781 93.945312 L 146.703125 93.945312 C 148.566406 93.945312 150.089844 92.421875 150.089844 90.558594 C 150.089844 88.691406 148.566406 87.167969 146.703125 87.167969 L 139.925781 87.167969 C 138.0625 87.167969 136.539062 88.691406 136.539062 90.558594 C 136.539062 92.421875 138.0625 93.945312 139.925781 93.945312 "/><path style=" stroke:none;fill-rule:nonzero;fill:#5271ff;fill-opacity:1;" d="M 163.640625 90.558594 C 163.640625 88.691406 162.117188 87.167969 160.25 87.167969 L 156.863281 87.167969 C 155 87.167969 153.476562 88.691406 153.476562 90.558594 C 153.476562 92.421875 155 93.945312 156.863281 93.945312 L 160.25 93.945312 C 162.117188 93.945312 163.640625 92.421875 163.640625 90.558594 "/><path style=" stroke:none;fill-rule:nonzero;fill:#5271ff;fill-opacity:1;" d="M 143.3125 56.683594 C 143.3125 58.546875 144.835938 60.070312 146.703125 60.070312 L 167.027344 60.070312 C 168.890625 60.070312 170.414062 58.546875 170.414062 56.683594 C 170.414062 54.816406 168.890625 53.292969 167.027344 53.292969 L 146.703125 53.292969 C 144.835938 53.292969 143.3125 54.816406 143.3125 56.683594 "/><path style=" stroke:none;fill-rule:nonzero;fill:#5271ff;fill-opacity:1;" d="M 146.703125 70.230469 L 167.027344 70.230469 C 168.890625 70.230469 170.414062 68.710938 170.414062 66.84375 C 170.414062 64.980469 168.890625 63.457031 167.027344 63.457031 L 146.703125 63.457031 C 144.835938 63.457031 143.3125 64.980469 143.3125 66.84375 C 143.3125 68.710938 144.835938 70.230469 146.703125 70.230469 "/><path style=" stroke:none;fill-rule:nonzero;fill:#5271ff;fill-opacity:1;" d="M 180.578125 70.230469 L 221.226562 70.230469 C 223.09375 70.230469 224.613281 68.710938 224.613281 66.84375 C 224.613281 64.980469 223.09375 63.457031 221.226562 63.457031 L 180.578125 63.457031 C 178.710938 63.457031 177.1875 64.980469 177.1875 66.84375 C 177.1875 68.710938 178.710938 70.230469 180.578125 70.230469 "/><path style=" stroke:none;fill-rule:nonzero;fill:#5271ff;fill-opacity:1;" d="M 146.703125 80.394531 L 167.027344 80.394531 C 168.890625 80.394531 170.414062 78.871094 170.414062 77.007812 C 170.414062 75.140625 168.890625 73.621094 167.027344 73.621094 L 146.703125 73.621094 C 144.835938 73.621094 143.3125 75.140625 143.3125 77.007812 C 143.3125 78.871094 144.835938 80.394531 146.703125 80.394531 "/><path style=" stroke:none;fill-rule:nonzero;fill:#5271ff;fill-opacity:1;" d="M 180.578125 80.394531 L 234.777344 80.394531 C 236.640625 80.394531 238.164062 78.871094 238.164062 77.007812 C 238.164062 75.140625 236.640625 73.621094 234.777344 73.621094 L 180.578125 73.621094 C 178.710938 73.621094 177.1875 75.140625 177.1875 77.007812 C 177.1875 78.871094 178.710938 80.394531 180.578125 80.394531 "/><path style=" stroke:none;fill-rule:nonzero;fill:#5271ff;fill-opacity:1;" d="M 150.089844 97.332031 L 146.703125 97.332031 C 144.835938 97.332031 143.3125 98.855469 143.3125 100.71875 C 143.3125 102.585938 144.835938 104.105469 146.703125 104.105469 L 150.089844 104.105469 C 151.953125 104.105469 153.476562 102.585938 153.476562 100.71875 C 153.476562 98.855469 151.953125 97.332031 150.089844 97.332031 "/><path style=" stroke:none;fill-rule:nonzero;fill:#5271ff;fill-opacity:1;" d="M 190.738281 97.332031 L 163.640625 97.332031 C 161.773438 97.332031 160.25 98.855469 160.25 100.71875 C 160.25 102.585938 161.773438 104.105469 163.640625 104.105469 L 190.738281 104.105469 C 192.605469 104.105469 194.125 102.585938 194.125 100.71875 C 194.125 98.855469 192.605469 97.332031 190.738281 97.332031 "/><path style=" stroke:none;fill-rule:nonzero;fill:#5271ff;fill-opacity:1;" d="M 224.613281 97.332031 L 204.289062 97.332031 C 202.421875 97.332031 200.902344 98.855469 200.902344 100.71875 C 200.902344 102.585938 202.421875 104.105469 204.289062 104.105469 L 224.613281 104.105469 C 226.480469 104.105469 228 102.585938 228 100.71875 C 228 98.855469 226.480469 97.332031 224.613281 97.332031 "/><path style=" stroke:none;fill-rule:nonzero;fill:#5271ff;fill-opacity:1;" d="M 150.089844 107.496094 L 146.703125 107.496094 C 144.835938 107.496094 143.3125 109.015625 143.3125 110.882812 C 143.3125 112.746094 144.835938 114.269531 146.703125 114.269531 L 150.089844 114.269531 C 151.953125 114.269531 153.476562 112.746094 153.476562 110.882812 C 153.476562 109.015625 151.953125 107.496094 150.089844 107.496094 "/><path style=" stroke:none;fill-rule:nonzero;fill:#5271ff;fill-opacity:1;" d="M 190.738281 107.496094 L 163.640625 107.496094 C 161.773438 107.496094 160.25 109.015625 160.25 110.882812 C 160.25 112.746094 161.773438 114.269531 163.640625 114.269531 L 190.738281 114.269531 C 192.605469 114.269531 194.125 112.746094 194.125 110.882812 C 194.125 109.015625 192.605469 107.496094 190.738281 107.496094 "/><path style=" stroke:none;fill-rule:nonzero;fill:#5271ff;fill-opacity:1;" d="M 211.0625 107.496094 L 204.289062 107.496094 C 202.421875 107.496094 200.902344 109.015625 200.902344 110.882812 C 200.902344 112.746094 202.421875 114.269531 204.289062 114.269531 L 211.0625 114.269531 C 212.929688 114.269531 214.453125 112.746094 214.453125 110.882812 C 214.453125 109.015625 212.929688 107.496094 211.0625 107.496094 "/><path style=" stroke:none;fill-rule:nonzero;fill:#5271ff;fill-opacity:1;" d="M 180.578125 60.070312 L 187.351562 60.070312 C 189.21875 60.070312 190.738281 58.546875 190.738281 56.683594 C 190.738281 54.816406 189.21875 53.292969 187.351562 53.292969 L 180.578125 53.292969 C 178.710938 53.292969 177.1875 54.816406 177.1875 56.683594 C 177.1875 58.546875 178.710938 60.070312 180.578125 60.070312 "/><g style="fill:#000000;fill-opacity:1;"><g transform="translate(3.785161, 258.154245)"><path style="stroke:none" d="M 20.390625 -34.296875 C 26.203125 -34.296875 30.691406 -32.804688 33.859375 -29.828125 C 37.023438 -26.859375 38.609375 -22.535156 38.609375 -16.859375 C 38.609375 -11.171875 37.023438 -6.835938 33.859375 -3.859375 C 30.691406 -0.890625 26.203125 0.59375 20.390625 0.59375 C 14.566406 0.59375 10.078125 -0.882812 6.921875 -3.84375 C 3.773438 -6.800781 2.203125 -11.140625 2.203125 -16.859375 C 2.203125 -22.578125 3.773438 -26.910156 6.921875 -29.859375 C 10.078125 -32.816406 14.566406 -34.296875 20.390625 -34.296875 Z M 20.390625 -26.21875 C 18.066406 -26.21875 16.300781 -25.515625 15.09375 -24.109375 C 13.882812 -22.703125 13.28125 -20.804688 13.28125 -18.421875 L 13.28125 -15.28125 C 13.28125 -12.90625 13.882812 -11.015625 15.09375 -9.609375 C 16.300781 -8.203125 18.066406 -7.5 20.390625 -7.5 C 22.703125 -7.5 24.46875 -8.203125 25.6875 -9.609375 C 26.914062 -11.015625 27.53125 -12.90625 27.53125 -15.28125 L 27.53125 -18.421875 C 27.53125 -20.804688 26.914062 -22.703125 25.6875 -24.109375 C 24.46875 -25.515625 22.703125 -26.21875 20.390625 -26.21875 Z M 20.390625 -26.21875 "/></g></g><g style="fill:#000000;fill-opacity:1;"><g transform="translate(44.598898, 258.154245)"><path style="stroke:none" d="M 20.1875 -25.875 L 20.1875 -19.25 L 14.703125 -19.25 L 14.703125 -9.40625 C 14.703125 -8.226562 14.894531 -7.367188 15.28125 -6.828125 C 15.675781 -6.296875 16.394531 -6.03125 17.4375 -6.03125 L 20.1875 -6.03125 L 20.1875 -0.296875 C 19.40625 -0.0351562 18.390625 0.175781 17.140625 0.34375 C 15.898438 0.507812 14.828125 0.59375 13.921875 0.59375 C 11.046875 0.59375 8.832031 0.0703125 7.28125 -0.96875 C 5.726562 -2.019531 4.953125 -3.804688 4.953125 -6.328125 L 4.953125 -19.25 L 1.328125 -19.25 L 1.328125 -25.875 L 5.34375 -25.875 L 7.453125 -33.71875 L 14.703125 -33.71875 L 14.703125 -25.875 Z M 20.1875 -25.875 "/></g></g><g style="fill:#000000;fill-opacity:1;"><g transform="translate(66.353165, 258.154245)"><path style="stroke:none" d="M 12.6875 -23.171875 C 13.738281 -24.222656 14.960938 -25.03125 16.359375 -25.59375 C 17.765625 -26.164062 19.238281 -26.453125 20.78125 -26.453125 C 23.78125 -26.453125 26.03125 -25.617188 27.53125 -23.953125 C 29.039062 -22.296875 29.796875 -19.898438 29.796875 -16.765625 L 29.796875 0 L 20.046875 0 L 20.046875 -15.578125 C 20.046875 -16.691406 19.757812 -17.582031 19.1875 -18.25 C 18.613281 -18.914062 17.804688 -19.25 16.765625 -19.25 C 15.546875 -19.25 14.5625 -18.859375 13.8125 -18.078125 C 13.0625 -17.296875 12.6875 -16.332031 12.6875 -15.1875 L 12.6875 0 L 2.9375 0 L 2.9375 -35.53125 L 12.6875 -35.53125 Z M 12.6875 -23.171875 "/></g></g><g style="fill:#000000;fill-opacity:1;"><g transform="translate(99.033553, 258.154245)"><path style="stroke:none" d="M 16.3125 -26.453125 C 21.050781 -26.453125 24.671875 -25.34375 27.171875 -23.125 C 29.671875 -20.90625 30.921875 -17.507812 30.921875 -12.9375 L 30.921875 -11.265625 L 11.515625 -11.265625 C 11.515625 -9.410156 11.929688 -8.007812 12.765625 -7.0625 C 13.597656 -6.113281 14.910156 -5.640625 16.703125 -5.640625 C 18.335938 -5.640625 19.539062 -5.976562 20.3125 -6.65625 C 21.082031 -7.34375 21.46875 -8.257812 21.46875 -9.40625 L 30.921875 -9.40625 C 30.921875 -6.269531 29.726562 -3.816406 27.34375 -2.046875 C 24.957031 -0.285156 21.476562 0.59375 16.90625 0.59375 C 12.101562 0.59375 8.378906 -0.523438 5.734375 -2.765625 C 3.085938 -5.003906 1.765625 -8.394531 1.765625 -12.9375 C 1.765625 -17.375 3.050781 -20.734375 5.625 -23.015625 C 8.207031 -25.304688 11.769531 -26.453125 16.3125 -26.453125 Z M 16.703125 -20.234375 C 13.640625 -20.234375 11.925781 -18.78125 11.5625 -15.875 L 21.0625 -15.875 C 21.0625 -17.21875 20.675781 -18.28125 19.90625 -19.0625 C 19.144531 -19.84375 18.078125 -20.234375 16.703125 -20.234375 Z M 16.703125 -20.234375 "/></g></g><g style="fill:#000000;fill-opacity:1;"><g transform="translate(131.713941, 258.154245)"><path style="stroke:none" d="M 18.671875 -26.515625 C 19.421875 -26.515625 20.085938 -26.421875 20.671875 -26.234375 C 21.265625 -26.054688 21.5625 -25.953125 21.5625 -25.921875 L 21.5625 -17.734375 L 18.421875 -17.734375 C 16.398438 -17.734375 14.9375 -17.210938 14.03125 -16.171875 C 13.132812 -15.128906 12.6875 -13.578125 12.6875 -11.515625 L 12.6875 0 L 2.9375 0 L 2.9375 -25.875 L 10.921875 -25.875 L 11.5625 -21.953125 C 12.15625 -23.453125 13.085938 -24.585938 14.359375 -25.359375 C 15.628906 -26.128906 17.066406 -26.515625 18.671875 -26.515625 Z M 18.671875 -26.515625 "/></g></g><g style="fill:#000000;fill-opacity:1;"><g transform="translate(153.468208, 258.154245)"><path style="stroke:none" d=""/></g></g><g style="fill:#000000;fill-opacity:1;"><g transform="translate(169.7839, 258.154245)"><path style="stroke:none" d="M 17.78125 -34.296875 C 22.09375 -34.296875 25.632812 -33.421875 28.40625 -31.671875 C 31.1875 -29.929688 32.613281 -27.34375 32.6875 -23.90625 L 32.6875 -23.328125 L 22.546875 -23.328125 L 22.546875 -23.515625 C 22.546875 -24.492188 22.1875 -25.3125 21.46875 -25.96875 C 20.75 -26.625 19.648438 -26.953125 18.171875 -26.953125 C 16.734375 -26.953125 15.628906 -26.738281 14.859375 -26.3125 C 14.097656 -25.882812 13.71875 -25.363281 13.71875 -24.75 C 13.71875 -23.863281 14.238281 -23.207031 15.28125 -22.78125 C 16.332031 -22.351562 18.015625 -21.914062 20.328125 -21.46875 C 23.046875 -20.90625 25.273438 -20.320312 27.015625 -19.71875 C 28.765625 -19.113281 30.289062 -18.125 31.59375 -16.75 C 32.90625 -15.382812 33.578125 -13.523438 33.609375 -11.171875 C 33.609375 -7.179688 32.257812 -4.222656 29.5625 -2.296875 C 26.875 -0.367188 23.273438 0.59375 18.765625 0.59375 C 13.503906 0.59375 9.410156 -0.285156 6.484375 -2.046875 C 3.566406 -3.816406 2.109375 -6.941406 2.109375 -11.421875 L 12.34375 -11.421875 C 12.34375 -9.722656 12.785156 -8.585938 13.671875 -8.015625 C 14.554688 -7.441406 15.925781 -7.15625 17.78125 -7.15625 C 19.15625 -7.15625 20.289062 -7.300781 21.1875 -7.59375 C 22.09375 -7.882812 22.546875 -8.488281 22.546875 -9.40625 C 22.546875 -10.226562 22.046875 -10.84375 21.046875 -11.25 C 20.046875 -11.65625 18.421875 -12.085938 16.171875 -12.546875 C 13.421875 -13.128906 11.144531 -13.738281 9.34375 -14.375 C 7.550781 -15.019531 5.984375 -16.078125 4.640625 -17.546875 C 3.304688 -19.015625 2.640625 -21.003906 2.640625 -23.515625 C 2.640625 -27.210938 4.066406 -29.929688 6.921875 -31.671875 C 9.785156 -33.421875 13.40625 -34.296875 17.78125 -34.296875 Z M 17.78125 -34.296875 "/></g></g><g style="fill:#000000;fill-opacity:1;"><g transform="translate(205.159073, 258.154245)"><path style="stroke:none" d="M 16.3125 -26.453125 C 21.050781 -26.453125 24.671875 -25.34375 27.171875 -23.125 C 29.671875 -20.90625 30.921875 -17.507812 30.921875 -12.9375 L 30.921875 -11.265625 L 11.515625 -11.265625 C 11.515625 -9.410156 11.929688 -8.007812 12.765625 -7.0625 C 13.597656 -6.113281 14.910156 -5.640625 16.703125 -5.640625 C 18.335938 -5.640625 19.539062 -5.976562 20.3125 -6.65625 C 21.082031 -7.34375 21.46875 -8.257812 21.46875 -9.40625 L 30.921875 -9.40625 C 30.921875 -6.269531 29.726562 -3.816406 27.34375 -2.046875 C 24.957031 -0.285156 21.476562 0.59375 16.90625 0.59375 C 12.101562 0.59375 8.378906 -0.523438 5.734375 -2.765625 C 3.085938 -5.003906 1.765625 -8.394531 1.765625 -12.9375 C 1.765625 -17.375 3.050781 -20.734375 5.625 -23.015625 C 8.207031 -25.304688 11.769531 -26.453125 16.3125 -26.453125 Z M 16.703125 -20.234375 C 13.640625 -20.234375 11.925781 -18.78125 11.5625 -15.875 L 21.0625 -15.875 C 21.0625 -17.21875 20.675781 -18.28125 19.90625 -19.0625 C 19.144531 -19.84375 18.078125 -20.234375 16.703125 -20.234375 Z M 16.703125 -20.234375 "/></g></g><g style="fill:#000000;fill-opacity:1;"><g transform="translate(237.839461, 258.154245)"><path style="stroke:none" d="M 18.671875 -26.515625 C 19.421875 -26.515625 20.085938 -26.421875 20.671875 -26.234375 C 21.265625 -26.054688 21.5625 -25.953125 21.5625 -25.921875 L 21.5625 -17.734375 L 18.421875 -17.734375 C 16.398438 -17.734375 14.9375 -17.210938 14.03125 -16.171875 C 13.132812 -15.128906 12.6875 -13.578125 12.6875 -11.515625 L 12.6875 0 L 2.9375 0 L 2.9375 -25.875 L 10.921875 -25.875 L 11.5625 -21.953125 C 12.15625 -23.453125 13.085938 -24.585938 14.359375 -25.359375 C 15.628906 -26.128906 17.066406 -26.515625 18.671875 -26.515625 Z M 18.671875 -26.515625 "/></g></g><g style="fill:#000000;fill-opacity:1;"><g transform="translate(259.59374, 258.154245)"><path style="stroke:none" d="M 9.796875 0 L 0 -25.875 L 10.484375 -25.875 L 15.234375 -9.75 L 15.578125 -9.75 L 20.328125 -25.875 L 29.9375 -25.875 L 20.046875 0 Z M 9.796875 0 "/></g></g><g style="fill:#000000;fill-opacity:1;"><g transform="translate(289.530337, 258.154245)"><path style="stroke:none" d="M 3.28125 -28.90625 L 3.28125 -35.53125 L 13.03125 -35.53125 L 13.03125 -28.90625 Z M 3.28125 0 L 3.28125 -25.875 L 13.03125 -25.875 L 13.03125 0 Z M 3.28125 0 "/></g></g><g style="fill:#000000;fill-opacity:1;"><g transform="translate(305.84604, 258.154245)"><path style="stroke:none" d="M 16.3125 -26.453125 C 20.5625 -26.453125 24 -25.546875 26.625 -23.734375 C 29.257812 -21.921875 30.578125 -19.15625 30.578125 -15.4375 L 21.125 -15.4375 C 21.125 -18.375 19.519531 -19.84375 16.3125 -19.84375 C 13.113281 -19.84375 11.515625 -18 11.515625 -14.3125 L 11.515625 -11.515625 C 11.515625 -7.859375 13.179688 -6.03125 16.515625 -6.03125 C 19.847656 -6.03125 21.515625 -7.53125 21.515625 -10.53125 L 30.578125 -10.53125 C 30.578125 -6.78125 29.257812 -3.988281 26.625 -2.15625 C 24 -0.320312 20.5625 0.59375 16.3125 0.59375 C 11.769531 0.59375 8.207031 -0.546875 5.625 -2.828125 C 3.050781 -5.117188 1.765625 -8.488281 1.765625 -12.9375 C 1.765625 -17.375 3.050781 -20.734375 5.625 -23.015625 C 8.207031 -25.304688 11.769531 -26.453125 16.3125 -26.453125 Z M 16.3125 -26.453125 "/></g></g><g style="fill:#000000;fill-opacity:1;"><g transform="translate(338.526428, 258.154245)"><path style="stroke:none" d="M 16.3125 -26.453125 C 21.050781 -26.453125 24.671875 -25.34375 27.171875 -23.125 C 29.671875 -20.90625 30.921875 -17.507812 30.921875 -12.9375 L 30.921875 -11.265625 L 11.515625 -11.265625 C 11.515625 -9.410156 11.929688 -8.007812 12.765625 -7.0625 C 13.597656 -6.113281 14.910156 -5.640625 16.703125 -5.640625 C 18.335938 -5.640625 19.539062 -5.976562 20.3125 -6.65625 C 21.082031 -7.34375 21.46875 -8.257812 21.46875 -9.40625 L 30.921875 -9.40625 C 30.921875 -6.269531 29.726562 -3.816406 27.34375 -2.046875 C 24.957031 -0.285156 21.476562 0.59375 16.90625 0.59375 C 12.101562 0.59375 8.378906 -0.523438 5.734375 -2.765625 C 3.085938 -5.003906 1.765625 -8.394531 1.765625 -12.9375 C 1.765625 -17.375 3.050781 -20.734375 5.625 -23.015625 C 8.207031 -25.304688 11.769531 -26.453125 16.3125 -26.453125 Z M 16.703125 -20.234375 C 13.640625 -20.234375 11.925781 -18.78125 11.5625 -15.875 L 21.0625 -15.875 C 21.0625 -17.21875 20.675781 -18.28125 19.90625 -19.0625 C 19.144531 -19.84375 18.078125 -20.234375 16.703125 -20.234375 Z M 16.703125 -20.234375 "/></g></g><g style="fill:#5271ff;fill-opacity:1;"><g transform="translate(142.274734, 282.804238)"><path style="stroke:none" d="M 2.171875 0 L 1.171875 0 L 1.171875 -8.5625 L 5.953125 -8.5625 L 5.953125 -7.6875 L 2.171875 -7.6875 L 2.171875 -4.546875 L 5.71875 -4.546875 L 5.71875 -3.65625 L 2.171875 -3.65625 Z M 2.171875 0 "/></g></g><g style="fill:#5271ff;fill-opacity:1;"><g transform="translate(150.244125, 282.804238)"><path style="stroke:none" d="M 6.578125 -3.21875 C 6.578125 -2.164062 6.3125 -1.34375 5.78125 -0.75 C 5.257812 -0.164062 4.53125 0.125 3.59375 0.125 C 3.019531 0.125 2.507812 -0.0078125 2.0625 -0.28125 C 1.625 -0.550781 1.28125 -0.9375 1.03125 -1.4375 C 0.789062 -1.945312 0.671875 -2.539062 0.671875 -3.21875 C 0.671875 -4.257812 0.929688 -5.070312 1.453125 -5.65625 C 1.984375 -6.25 2.710938 -6.546875 3.640625 -6.546875 C 4.535156 -6.546875 5.25 -6.242188 5.78125 -5.640625 C 6.3125 -5.046875 6.578125 -4.238281 6.578125 -3.21875 Z M 1.6875 -3.21875 C 1.6875 -2.394531 1.847656 -1.769531 2.171875 -1.34375 C 2.503906 -0.914062 2.988281 -0.703125 3.625 -0.703125 C 4.257812 -0.703125 4.738281 -0.914062 5.0625 -1.34375 C 5.394531 -1.769531 5.5625 -2.394531 5.5625 -3.21875 C 5.5625 -4.03125 5.394531 -4.648438 5.0625 -5.078125 C 4.738281 -5.503906 4.253906 -5.71875 3.609375 -5.71875 C 2.972656 -5.71875 2.492188 -5.503906 2.171875 -5.078125 C 1.847656 -4.660156 1.6875 -4.039062 1.6875 -3.21875 Z M 1.6875 -3.21875 "/></g></g><g style="fill:#5271ff;fill-opacity:1;"><g transform="translate(159.268202, 282.804238)"><path style="stroke:none" d="M 3.96875 -6.546875 C 4.25 -6.546875 4.503906 -6.519531 4.734375 -6.46875 L 4.59375 -5.5625 C 4.332031 -5.625 4.097656 -5.65625 3.890625 -5.65625 C 3.367188 -5.65625 2.921875 -5.441406 2.546875 -5.015625 C 2.179688 -4.597656 2 -4.078125 2 -3.453125 L 2 0 L 1.03125 0 L 1.03125 -6.421875 L 1.828125 -6.421875 L 1.953125 -5.234375 L 2 -5.234375 C 2.226562 -5.648438 2.507812 -5.972656 2.84375 -6.203125 C 3.1875 -6.429688 3.5625 -6.546875 3.96875 -6.546875 Z M 3.96875 -6.546875 "/></g></g><g style="fill:#5271ff;fill-opacity:1;"><g transform="translate(165.942671, 282.804238)"><path style="stroke:none" d=""/></g></g><g style="fill:#5271ff;fill-opacity:1;"><g transform="translate(170.83589, 282.804238)"><path style="stroke:none" d="M 1.171875 -8.5625 L 3.59375 -8.5625 C 4.726562 -8.5625 5.550781 -8.390625 6.0625 -8.046875 C 6.570312 -7.710938 6.828125 -7.179688 6.828125 -6.453125 C 6.828125 -5.941406 6.6875 -5.519531 6.40625 -5.1875 C 6.125 -4.851562 5.707031 -4.640625 5.15625 -4.546875 L 5.15625 -4.484375 C 6.457031 -4.265625 7.109375 -3.582031 7.109375 -2.4375 C 7.109375 -1.675781 6.847656 -1.078125 6.328125 -0.640625 C 5.816406 -0.210938 5.097656 0 4.171875 0 L 1.171875 0 Z M 2.171875 -4.90625 L 3.8125 -4.90625 C 4.519531 -4.90625 5.023438 -5.015625 5.328125 -5.234375 C 5.640625 -5.453125 5.796875 -5.820312 5.796875 -6.34375 C 5.796875 -6.820312 5.625 -7.164062 5.28125 -7.375 C 4.9375 -7.59375 4.390625 -7.703125 3.640625 -7.703125 L 2.171875 -7.703125 Z M 2.171875 -4.0625 L 2.171875 -0.84375 L 3.96875 -0.84375 C 4.65625 -0.84375 5.171875 -0.976562 5.515625 -1.25 C 5.867188 -1.519531 6.046875 -1.941406 6.046875 -2.515625 C 6.046875 -3.046875 5.863281 -3.4375 5.5 -3.6875 C 5.144531 -3.9375 4.601562 -4.0625 3.875 -4.0625 Z M 2.171875 -4.0625 "/></g></g><g style="fill:#5271ff;fill-opacity:1;"><g transform="translate(180.387311, 282.804238)"><path style="stroke:none" d="M 1.953125 -6.421875 L 1.953125 -2.25 C 1.953125 -1.726562 2.066406 -1.335938 2.296875 -1.078125 C 2.535156 -0.828125 2.910156 -0.703125 3.421875 -0.703125 C 4.097656 -0.703125 4.585938 -0.882812 4.890625 -1.25 C 5.203125 -1.613281 5.359375 -2.210938 5.359375 -3.046875 L 5.359375 -6.421875 L 6.328125 -6.421875 L 6.328125 0 L 5.53125 0 L 5.390625 -0.859375 L 5.34375 -0.859375 C 5.144531 -0.546875 4.867188 -0.300781 4.515625 -0.125 C 4.160156 0.0390625 3.753906 0.125 3.296875 0.125 C 2.515625 0.125 1.929688 -0.0625 1.546875 -0.4375 C 1.160156 -0.8125 0.96875 -1.40625 0.96875 -2.21875 L 0.96875 -6.421875 Z M 1.953125 -6.421875 "/></g></g><g style="fill:#5271ff;fill-opacity:1;"><g transform="translate(189.528576, 282.804238)"><path style="stroke:none" d="M 5.171875 -1.75 C 5.171875 -1.15625 4.945312 -0.691406 4.5 -0.359375 C 4.0625 -0.0351562 3.4375 0.125 2.625 0.125 C 1.78125 0.125 1.117188 -0.0078125 0.640625 -0.28125 L 0.640625 -1.1875 C 0.953125 -1.03125 1.28125 -0.90625 1.625 -0.8125 C 1.976562 -0.726562 2.320312 -0.6875 2.65625 -0.6875 C 3.164062 -0.6875 3.554688 -0.765625 3.828125 -0.921875 C 4.097656 -1.085938 4.234375 -1.335938 4.234375 -1.671875 C 4.234375 -1.921875 4.125 -2.132812 3.90625 -2.3125 C 3.695312 -2.488281 3.273438 -2.695312 2.640625 -2.9375 C 2.046875 -3.164062 1.617188 -3.363281 1.359375 -3.53125 C 1.109375 -3.695312 0.921875 -3.882812 0.796875 -4.09375 C 0.679688 -4.300781 0.625 -4.550781 0.625 -4.84375 C 0.625 -5.363281 0.835938 -5.773438 1.265625 -6.078125 C 1.691406 -6.390625 2.273438 -6.546875 3.015625 -6.546875 C 3.703125 -6.546875 4.378906 -6.40625 5.046875 -6.125 L 4.6875 -5.328125 C 4.050781 -5.585938 3.46875 -5.71875 2.9375 -5.71875 C 2.476562 -5.71875 2.128906 -5.644531 1.890625 -5.5 C 1.660156 -5.363281 1.546875 -5.164062 1.546875 -4.90625 C 1.546875 -4.738281 1.585938 -4.59375 1.671875 -4.46875 C 1.765625 -4.351562 1.90625 -4.238281 2.09375 -4.125 C 2.289062 -4.019531 2.671875 -3.863281 3.234375 -3.65625 C 3.992188 -3.375 4.503906 -3.09375 4.765625 -2.8125 C 5.035156 -2.53125 5.171875 -2.175781 5.171875 -1.75 Z M 5.171875 -1.75 "/></g></g><g style="fill:#5271ff;fill-opacity:1;"><g transform="translate(197.029217, 282.804238)"><path style="stroke:none" d="M 2 0 L 1.03125 0 L 1.03125 -6.421875 L 2 -6.421875 Z M 0.953125 -8.15625 C 0.953125 -8.382812 1.003906 -8.550781 1.109375 -8.65625 C 1.222656 -8.757812 1.363281 -8.8125 1.53125 -8.8125 C 1.6875 -8.8125 1.816406 -8.753906 1.921875 -8.640625 C 2.035156 -8.535156 2.09375 -8.375 2.09375 -8.15625 C 2.09375 -7.9375 2.035156 -7.773438 1.921875 -7.671875 C 1.816406 -7.566406 1.6875 -7.515625 1.53125 -7.515625 C 1.363281 -7.515625 1.222656 -7.566406 1.109375 -7.671875 C 1.003906 -7.773438 0.953125 -7.9375 0.953125 -8.15625 Z M 0.953125 -8.15625 "/></g></g><g style="fill:#5271ff;fill-opacity:1;"><g transform="translate(201.840404, 282.804238)"><path style="stroke:none" d="M 5.421875 0 L 5.421875 -4.15625 C 5.421875 -4.675781 5.300781 -5.066406 5.0625 -5.328125 C 4.832031 -5.585938 4.460938 -5.71875 3.953125 -5.71875 C 3.273438 -5.71875 2.78125 -5.535156 2.46875 -5.171875 C 2.15625 -4.804688 2 -4.207031 2 -3.375 L 2 0 L 1.03125 0 L 1.03125 -6.421875 L 1.828125 -6.421875 L 1.984375 -5.546875 L 2.03125 -5.546875 C 2.226562 -5.859375 2.503906 -6.101562 2.859375 -6.28125 C 3.222656 -6.457031 3.625 -6.546875 4.0625 -6.546875 C 4.84375 -6.546875 5.425781 -6.359375 5.8125 -5.984375 C 6.207031 -5.609375 6.40625 -5.007812 6.40625 -4.1875 L 6.40625 0 Z M 5.421875 0 "/></g></g><g style="fill:#5271ff;fill-opacity:1;"><g transform="translate(210.981669, 282.804238)"><path style="stroke:none" d="M 3.75 0.125 C 2.800781 0.125 2.050781 -0.164062 1.5 -0.75 C 0.945312 -1.332031 0.671875 -2.132812 0.671875 -3.15625 C 0.671875 -4.195312 0.925781 -5.019531 1.4375 -5.625 C 1.945312 -6.238281 2.632812 -6.546875 3.5 -6.546875 C 4.300781 -6.546875 4.9375 -6.28125 5.40625 -5.75 C 5.875 -5.21875 6.109375 -4.519531 6.109375 -3.65625 L 6.109375 -3.03125 L 1.6875 -3.03125 C 1.707031 -2.28125 1.894531 -1.707031 2.25 -1.3125 C 2.613281 -0.925781 3.125 -0.734375 3.78125 -0.734375 C 4.46875 -0.734375 5.148438 -0.878906 5.828125 -1.171875 L 5.828125 -0.296875 C 5.484375 -0.148438 5.15625 -0.046875 4.84375 0.015625 C 4.539062 0.0859375 4.175781 0.125 3.75 0.125 Z M 3.484375 -5.71875 C 2.960938 -5.71875 2.546875 -5.550781 2.234375 -5.21875 C 1.929688 -4.882812 1.753906 -4.421875 1.703125 -3.828125 L 5.0625 -3.828125 C 5.0625 -4.441406 4.925781 -4.910156 4.65625 -5.234375 C 4.382812 -5.554688 3.992188 -5.71875 3.484375 -5.71875 Z M 3.484375 -5.71875 "/></g></g><g style="fill:#5271ff;fill-opacity:1;"><g transform="translate(219.490122, 282.804238)"><path style="stroke:none" d="M 5.171875 -1.75 C 5.171875 -1.15625 4.945312 -0.691406 4.5 -0.359375 C 4.0625 -0.0351562 3.4375 0.125 2.625 0.125 C 1.78125 0.125 1.117188 -0.0078125 0.640625 -0.28125 L 0.640625 -1.1875 C 0.953125 -1.03125 1.28125 -0.90625 1.625 -0.8125 C 1.976562 -0.726562 2.320312 -0.6875 2.65625 -0.6875 C 3.164062 -0.6875 3.554688 -0.765625 3.828125 -0.921875 C 4.097656 -1.085938 4.234375 -1.335938 4.234375 -1.671875 C 4.234375 -1.921875 4.125 -2.132812 3.90625 -2.3125 C 3.695312 -2.488281 3.273438 -2.695312 2.640625 -2.9375 C 2.046875 -3.164062 1.617188 -3.363281 1.359375 -3.53125 C 1.109375 -3.695312 0.921875 -3.882812 0.796875 -4.09375 C 0.679688 -4.300781 0.625 -4.550781 0.625 -4.84375 C 0.625 -5.363281 0.835938 -5.773438 1.265625 -6.078125 C 1.691406 -6.390625 2.273438 -6.546875 3.015625 -6.546875 C 3.703125 -6.546875 4.378906 -6.40625 5.046875 -6.125 L 4.6875 -5.328125 C 4.050781 -5.585938 3.46875 -5.71875 2.9375 -5.71875 C 2.476562 -5.71875 2.128906 -5.644531 1.890625 -5.5 C 1.660156 -5.363281 1.546875 -5.164062 1.546875 -4.90625 C 1.546875 -4.738281 1.585938 -4.59375 1.671875 -4.46875 C 1.765625 -4.351562 1.90625 -4.238281 2.09375 -4.125 C 2.289062 -4.019531 2.671875 -3.863281 3.234375 -3.65625 C 3.992188 -3.375 4.503906 -3.09375 4.765625 -2.8125 C 5.035156 -2.53125 5.171875 -2.175781 5.171875 -1.75 Z M 5.171875 -1.75 "/></g></g><g style="fill:#5271ff;fill-opacity:1;"><g transform="translate(226.990763, 282.804238)"><path style="stroke:none" d="M 5.171875 -1.75 C 5.171875 -1.15625 4.945312 -0.691406 4.5 -0.359375 C 4.0625 -0.0351562 3.4375 0.125 2.625 0.125 C 1.78125 0.125 1.117188 -0.0078125 0.640625 -0.28125 L 0.640625 -1.1875 C 0.953125 -1.03125 1.28125 -0.90625 1.625 -0.8125 C 1.976562 -0.726562 2.320312 -0.6875 2.65625 -0.6875 C 3.164062 -0.6875 3.554688 -0.765625 3.828125 -0.921875 C 4.097656 -1.085938 4.234375 -1.335938 4.234375 -1.671875 C 4.234375 -1.921875 4.125 -2.132812 3.90625 -2.3125 C 3.695312 -2.488281 3.273438 -2.695312 2.640625 -2.9375 C 2.046875 -3.164062 1.617188 -3.363281 1.359375 -3.53125 C 1.109375 -3.695312 0.921875 -3.882812 0.796875 -4.09375 C 0.679688 -4.300781 0.625 -4.550781 0.625 -4.84375 C 0.625 -5.363281 0.835938 -5.773438 1.265625 -6.078125 C 1.691406 -6.390625 2.273438 -6.546875 3.015625 -6.546875 C 3.703125 -6.546875 4.378906 -6.40625 5.046875 -6.125 L 4.6875 -5.328125 C 4.050781 -5.585938 3.46875 -5.71875 2.9375 -5.71875 C 2.476562 -5.71875 2.128906 -5.644531 1.890625 -5.5 C 1.660156 -5.363281 1.546875 -5.164062 1.546875 -4.90625 C 1.546875 -4.738281 1.585938 -4.59375 1.671875 -4.46875 C 1.765625 -4.351562 1.90625 -4.238281 2.09375 -4.125 C 2.289062 -4.019531 2.671875 -3.863281 3.234375 -3.65625 C 3.992188 -3.375 4.503906 -3.09375 4.765625 -2.8125 C 5.035156 -2.53125 5.171875 -2.175781 5.171875 -1.75 Z M 5.171875 -1.75 "/></g></g></g></svg>